<?xml version="1.0" encoding="UTF-8"?><svg id="Layer_1" xmlns="http://www.w3.org/2000/svg" viewBox="0 0 93.74 87.99"><defs><style>.cls-1{fill:#20a589;stroke-width:0px;}</style></defs><polygon class="cls-1" points="75.9 36.69 78.32 23.31 65.52 26.94 68.44 29.79 44.54 55.96 35.12 45.89 31.24 49.91 44.47 64.28 72.7 33.7 75.9 36.69"/><path class="cls-1" d="m33.87,59.96h-1.43c-.21,0-.42,0-.62-.01-6.19-.29-11.46-4.31-11.46-9.89,0-4.85,4.7-8.59,9.74-9.77.95-.22,1.81,0,2.84,0,.79,0,2.14.41,2.84.66,5.26,1.85,5.93,3.24,8.32,7.54l2.99-3.7c-2.35-4.2-6.81-7.85-11.17-8.68,1.93-3.44,4.69-7.82,10.24-7.75,6.4.08,8.06,1.83,10.17,4.55.67.87,1.59,2.32,1.78,3.41l3.47-3.98c-2.7-5.19-8.24-9.04-15.06-9.04-7.46,0-13.02,6.17-15.29,12.16-8.41.91-15.82,8.26-15.82,14.02,0,8.18,7.32,14.87,16.4,15.16.21.01.41.01.62.01h7.47l-4.27-4.72h-1.78Z"/><path class="cls-1" d="m71.19,40.29l-3.47,3.7c2.57,1.92,5.6,3.51,5.05,8.25-.78,6.73-5.05,7.05-10.89,7.64-.44.05-.89.07-1.34.07h-7.18l-3.76,4.72h10.94c.45,0,.9-.01,1.34-.06,9.04.06,15.72-4.96,15.72-12.37,0-4.8-2.51-9.17-6.42-11.95Z"/></svg>